<svg xmlns="http://www.w3.org/2000/svg" width="617" height="663" viewBox="0 0 617 663">
<g>
<path d="M 0.00 0.00 L 617.00 0.00 L 617.00 663.00 L 0.00 663.00 ZM 288.52 598.78 C290.61,603.34 292.76,606.91 293.30,606.73 C293.84,606.55 296.18,602.15 298.49,596.95 C300.81,591.75 306.99,578.28 312.24,567.00 C321.12,547.90 337.47,512.33 340.50,505.50 C342.21,501.67 352.54,479.16 360.01,463.00 C363.19,456.12 369.49,442.40 374.01,432.50 C382.70,413.48 389.89,397.85 399.80,376.50 C403.11,369.35 406.96,360.91 408.36,357.75 C410.42,353.07 411.33,352.00 413.27,352.00 C419.24,352.00 442.32,343.65 453.00,337.64 C490.72,316.38 516.63,279.99 524.66,237.00 C527.08,224.03 527.09,195.95 524.67,184.00 C519.86,160.20 509.60,138.14 494.66,119.49 C488.75,112.12 486.24,109.57 475.70,100.23 C465.49,91.19 443.69,79.36 428.50,74.62 C425.02,73.54 422.48,72.65 419.89,71.92 C407.02,68.28 393.04,68.56 257.28,68.27 L 109.07 67.95 L 113.14 76.72 C117.04,85.12 121.58,95.00 133.38,120.75 C136.35,127.21 140.45,136.10 142.50,140.50 C144.56,144.90 147.25,150.75 148.49,153.50 C151.12,159.32 155.76,169.37 160.72,180.00 C162.65,184.12 166.60,192.68 169.51,199.00 C172.41,205.32 176.85,214.89 179.36,220.25 L 183.93 230.00 L 252.22 230.03 C329.73,230.07 330.24,230.11 344.57,237.14 C351.64,240.60 355.13,243.15 361.50,249.50 C373.91,261.87 379.68,273.52 382.21,291.25 C383.67,301.52 382.16,312.24 377.95,321.53 C376.21,325.37 370.09,339.04 364.33,351.93 C354.12,374.80 331.33,424.98 317.06,456.00 C313.14,464.52 306.30,479.71 301.86,489.75 C297.42,499.79 293.45,508.00 293.04,508.00 C292.62,508.00 289.47,501.81 286.02,494.25 C282.57,486.69 277.16,474.88 273.99,468.00 C270.81,461.12 265.52,449.65 262.23,442.50 C258.93,435.35 253.21,422.98 249.51,415.00 C245.81,407.02 240.62,395.77 237.99,390.00 C235.35,384.23 228.16,368.48 222.01,355.00 C206.08,320.11 194.00,293.18 194.00,292.55 C194.00,292.25 214.64,292.00 239.88,292.00 C275.36,292.00 285.99,291.72 286.79,290.75 C288.10,289.16 303.18,250.85 302.69,250.36 C302.49,250.15 263.11,250.10 215.19,250.24 L 128.06 250.50 L 136.86 269.50 C150.93,299.86 186.72,377.39 192.72,390.50 C195.74,397.10 201.04,408.58 204.50,416.00 C207.96,423.42 216.06,440.98 222.51,455.00 C228.95,469.02 237.15,486.80 240.75,494.50 C248.46,511.04 260.32,536.88 274.48,568.00 C280.12,580.38 286.43,594.23 288.52,598.78 ZM 434.13 299.68 C429.96,302.06 426.04,304.00 425.42,304.00 C424.67,304.00 424.09,299.72 423.70,291.25 C422.87,273.49 418.18,257.72 409.09,242.16 C404.18,233.75 392.95,220.01 386.82,214.91 C375.27,205.31 360.41,196.97 347.57,192.86 C333.39,188.33 327.92,188.00 267.36,188.00 L 209.97 188.00 L 207.61 182.75 C206.31,179.86 203.57,173.90 201.53,169.50 C181.19,125.75 175.00,112.09 175.00,110.95 C175.00,109.61 386.76,109.70 398.50,111.05 C414.29,112.85 431.42,119.50 443.50,128.50 C457.07,138.61 470.52,154.89 476.52,168.45 C491.12,201.47 487.50,240.82 467.20,269.50 C457.85,282.71 447.78,291.90 434.13,299.68 ZM 291.07 465.25 C292.35,467.86 293.70,469.66 294.07,469.25 C294.45,468.84 298.45,460.40 302.98,450.50 C307.50,440.60 312.28,430.21 313.60,427.40 C316.51,421.21 316.59,418.86 314.03,414.14 C312.94,412.14 308.41,402.62 303.97,393.00 C299.52,383.38 293.94,371.45 291.57,366.50 C289.20,361.55 287.41,357.23 287.59,356.91 C287.77,356.58 300.87,356.23 316.69,356.13 C332.60,356.03 345.87,355.53 346.38,355.02 C347.41,353.99 364.00,316.16 364.00,314.84 C364.00,314.38 332.00,314.00 292.89,314.00 C236.41,314.00 221.89,314.26 222.28,315.25 C223.21,317.63 262.03,402.38 269.80,419.00 C271.98,423.67 277.14,434.92 281.26,444.00 C285.37,453.08 289.79,462.64 291.07,465.25 Z" fill="#FFFFFF"/>
<path d="M 288.52 598.78 C286.43,594.23 280.12,580.38 274.48,568.00 C260.32,536.88 248.46,511.04 240.75,494.50 C237.15,486.80 228.95,469.02 222.51,455.00 C216.06,440.98 207.96,423.42 204.50,416.00 C201.04,408.58 195.74,397.10 192.72,390.50 C186.72,377.39 150.93,299.86 136.86,269.50 L 128.06 250.50 L 215.19 250.24 C263.11,250.10 302.49,250.15 302.69,250.36 C303.18,250.85 288.10,289.16 286.79,290.75 C285.99,291.72 275.36,292.00 239.88,292.00 C214.64,292.00 194.00,292.25 194.00,292.55 C194.00,293.18 206.08,320.11 222.01,355.00 C228.16,368.48 235.35,384.23 237.99,390.00 C240.62,395.77 245.81,407.02 249.51,415.00 C253.21,422.98 258.93,435.35 262.23,442.50 C265.52,449.65 270.81,461.12 273.99,468.00 C277.16,474.88 282.57,486.69 286.02,494.25 C289.47,501.81 292.62,508.00 293.04,508.00 C293.45,508.00 297.42,499.79 301.86,489.75 C306.30,479.71 313.14,464.52 317.06,456.00 C331.33,424.98 354.12,374.80 364.33,351.93 C370.09,339.04 376.21,325.37 377.95,321.53 C382.16,312.24 383.67,301.52 382.21,291.25 C379.68,273.52 373.91,261.87 361.50,249.50 C355.13,243.15 351.64,240.60 344.57,237.14 C330.24,230.11 329.73,230.07 252.22,230.03 L 183.93 230.00 L 179.36 220.25 C176.85,214.89 172.41,205.32 169.51,199.00 C166.60,192.68 162.65,184.12 160.72,180.00 C155.76,169.37 151.12,159.32 148.49,153.50 C147.25,150.75 144.56,144.90 142.50,140.50 C140.45,136.10 136.35,127.21 133.38,120.75 C121.58,95.00 117.04,85.12 113.14,76.72 L 109.07 67.95 L 257.28 68.27 C420.35,68.61 407.72,68.15 428.50,74.62 C443.69,79.36 465.49,91.19 475.70,100.23 C486.24,109.57 488.75,112.12 494.66,119.49 C509.60,138.14 519.86,160.20 524.67,184.00 C527.09,195.95 527.08,224.03 524.66,237.00 C516.63,279.99 490.72,316.38 453.00,337.64 C442.32,343.65 419.24,352.00 413.27,352.00 C411.33,352.00 410.42,353.07 408.36,357.75 C406.96,360.91 403.11,369.35 399.80,376.50 C389.89,397.85 382.70,413.48 374.01,432.50 C369.49,442.40 363.19,456.12 360.01,463.00 C352.54,479.16 342.21,501.67 340.50,505.50 C337.47,512.33 321.12,547.90 312.24,567.00 C306.99,578.28 300.81,591.75 298.49,596.95 C296.18,602.15 293.84,606.55 293.30,606.73 C292.76,606.91 290.61,603.34 288.52,598.78 ZM 434.13 299.68 C447.78,291.90 457.85,282.71 467.20,269.50 C487.50,240.82 491.12,201.47 476.52,168.45 C470.52,154.89 457.07,138.61 443.50,128.50 C431.42,119.50 414.29,112.85 398.50,111.05 C386.76,109.70 175.00,109.61 175.00,110.95 C175.00,112.09 181.19,125.75 201.53,169.50 C203.57,173.90 206.31,179.86 207.61,182.75 L 209.97 188.00 L 267.36 188.00 C327.92,188.00 333.39,188.33 347.57,192.86 C360.41,196.97 375.27,205.31 386.82,214.91 C392.95,220.01 404.18,233.75 409.09,242.16 C418.18,257.72 422.87,273.49 423.70,291.25 C424.09,299.72 424.67,304.00 425.42,304.00 C426.04,304.00 429.96,302.06 434.13,299.68 ZM 291.07 465.25 C289.79,462.64 285.37,453.08 281.26,444.00 C277.14,434.92 271.98,423.67 269.80,419.00 C262.03,402.38 223.21,317.63 222.28,315.25 C221.89,314.26 236.41,314.00 292.89,314.00 C332.00,314.00 364.00,314.38 364.00,314.84 C364.00,316.16 347.41,353.99 346.38,355.02 C345.87,355.53 332.60,356.03 316.69,356.13 C300.87,356.23 287.77,356.58 287.59,356.91 C287.41,357.23 289.20,361.55 291.57,366.50 C293.94,371.45 299.52,383.38 303.97,393.00 C308.41,402.62 312.94,412.14 314.03,414.14 C316.59,418.86 316.51,421.21 313.60,427.40 C312.28,430.21 307.50,440.60 302.98,450.50 C298.45,460.40 294.45,468.84 294.07,469.25 C293.70,469.66 292.35,467.86 291.07,465.25 Z" fill="#FFFFFF"/>
</g>
</svg>